<?xml version="1.0" encoding="UTF-8"?>
<svg width="900px" height="400px" viewBox="0 0 900 400" version="1.1" xmlns="http://www.w3.org/2000/svg" xmlns:xlink="http://www.w3.org/1999/xlink">
    <!-- Generator: Sketch 41.2 (35397) - http://www.bohemiancoding.com/sketch -->
    <title>logo-color</title>
    <desc>Created with Sketch.</desc>
    <defs></defs>
    <g id="Page-1" stroke="none" stroke-width="1" fill="none" fill-rule="evenodd">
        <g id="logo-color" fill="#2575FC">
            <g id="Logo" transform="translate(11.000000, 13.000000)">
                <path d="M94.4653195,132.378827 L44.3555434,132.378827 L32.8470781,169.34949 L0,169.34949 L54.1856909,2.38520408 L87.032769,2.38520408 L140.9787,169.34949 L106.453304,169.34949 L94.4653195,132.378827 Z M52.0278536,106.141582 L87.9918078,106.141582 L70.9688695,50.3278061 L68.8110322,50.3278061 L52.0278536,106.141582 Z M222.496996,101.371173 L252.227198,101.371173 L252.227198,169.34949 L141.937739,169.34949 L141.937739,2.38520408 L174.784817,2.38520408 L174.784817,140.25 L222.496996,140.25 L222.496996,101.371173 Z M321.27799,124.746173 L322.476789,124.746173 L355.563626,2.38520408 L389.609503,2.38520408 L339.259967,169.34949 L301.857455,169.34949 L250.069361,2.38520408 L286.752594,2.38520408 L321.27799,124.746173 Z M468.490442,132.378827 L418.380666,132.378827 L406.872201,169.34949 L374.025123,169.34949 L428.210814,2.38520408 L461.057892,2.38520408 L515.003823,169.34949 L480.478427,169.34949 L468.490442,132.378827 Z M426.052977,106.141582 L462.016931,106.141582 L444.993992,50.3278061 L442.836155,50.3278061 L426.052977,106.141582 Z M512.126707,4.05484694 C515.80304,3.41878934 519.759036,2.82249428 523.994812,2.26594388 C528.230587,1.70939348 532.4663,1.27211043 536.702075,0.954081633 C540.937851,0.636052832 545.053685,0.397534809 549.0497,0.238520408 C553.045715,0.0795060077 556.721993,0 560.078646,0 C567.910835,0 575.623028,0.755307073 583.215456,2.26594388 C590.807884,3.77658068 597.601008,6.36052593 603.59503,10.0178571 C609.589052,13.6751884 614.384198,18.6045608 617.980612,24.8061224 C621.577025,31.0076841 623.375205,38.7197668 623.375205,47.942602 C623.375205,54.7802213 622.695892,60.7034188 621.337247,65.7123724 C619.978602,70.7213261 618.100504,75.1339095 615.702895,78.9502551 C613.305286,82.7666007 610.388239,86.0661 606.951666,88.848852 C603.515093,91.631604 599.798855,94.1360433 595.80284,96.3622449 L636.322228,169.34949 L598.440197,169.34949 L564.63408,103.994898 L544.973785,103.994898 L544.973785,169.34949 L512.126707,169.34949 L512.126707,4.05484694 Z M562.476242,29.0994898 C559.11959,29.0994898 555.802947,29.1789958 552.526215,29.3380102 C549.249483,29.4970246 546.732031,29.8150486 544.973785,30.2920918 L544.973785,78.7117347 L557.920808,78.7117347 C567.031722,78.7117347 574.464198,76.6445785 580.21846,72.5102041 C585.972721,68.3758297 588.849809,61.538313 588.849809,51.997449 C588.849809,44.841801 586.612074,39.2366274 582.136537,35.1817602 C577.661001,31.126893 571.107635,29.0994898 562.476242,29.0994898 Z M638.719825,2.38520408 L748.769525,2.38520408 L748.769525,31.4846939 L671.566903,31.4846939 L671.566903,70.3635204 L742.775532,70.3635204 L742.775532,99.4630102 L671.566903,99.4630102 L671.566903,140.25 L749.968323,140.25 L749.968323,169.34949 L638.719825,169.34949 L638.719825,2.38520408 Z M759.318951,140.25 L837.960131,31.4846939 L763.155106,31.4846939 L763.155106,2.38520408 L876.561442,2.38520408 L876.561442,31.4846939 L799.119061,140.25 L877.76024,140.25 L877.76024,169.34949 L759.318951,169.34949 L759.318951,140.25 Z" id="ALVAREZ"></path>
                <path d="M400.398689,277.637755 L376.66248,277.637755 L376.66248,251.40051 L400.398689,251.40051 L400.398689,224.209184 L431.567449,215.383929 L431.567449,251.40051 L494.384489,251.40051 L494.384489,277.637755 L431.567449,277.637755 L431.567449,311.746173 C431.567449,323.990282 433.885103,332.855202 438.520481,338.341199 C443.155858,343.827196 449.629305,346.570153 457.941016,346.570153 C462.256712,346.570153 466.172748,346.053364 469.689241,345.01977 C473.205734,343.986177 476.362538,342.674328 479.159749,341.084184 C481.956959,339.49404 484.51437,337.744908 486.832059,335.836735 C489.149748,333.928562 491.267604,332.17943 493.185691,330.589286 L507.571273,352.056122 C504.853982,355.23641 501.457421,358.13838 497.381486,360.762117 C493.30555,363.385855 488.91,365.691529 484.194702,367.679209 C479.479405,369.666889 474.56438,371.217256 469.449481,372.330357 C464.334582,373.443458 459.299679,374 454.34462,374 C436.442474,374 422.976106,369.030875 413.945112,359.092474 C404.914118,349.154074 400.398689,333.372132 400.398689,311.746173 L400.398689,277.637755 Z M625.293282,358.019133 C623.215355,359.927305 620.538065,361.795697 617.261333,363.624362 C613.9846,365.453028 610.148484,367.162407 605.752867,368.752551 C601.357251,370.342695 596.522145,371.614791 591.247406,372.568878 C585.972666,373.522964 580.378329,374 574.464227,374 C564.234429,374 555.083692,372.568892 547.011742,369.706633 C538.939792,366.844373 532.106709,362.670308 526.512288,357.184311 C520.917868,351.698314 516.642196,345.099316 513.685145,337.387117 C510.728094,329.674919 509.24959,320.889505 509.24959,311.030612 C509.24959,300.535662 510.927891,291.352718 514.284544,283.481505 C517.641196,275.610292 522.236545,269.051047 528.070726,263.803571 C533.904908,258.556096 540.737991,254.620549 548.57018,251.996811 C556.402369,249.373074 564.873794,248.061224 573.984708,248.061224 C580.05865,248.061224 586.3323,248.856285 592.805844,250.446429 C599.279388,252.036573 605.233361,254.77953 610.667941,258.675383 C616.102521,262.571235 620.538031,267.778879 623.974604,274.298469 C627.411177,280.81806 629.129437,289.086685 629.129437,299.104592 C629.129437,305.942211 628.330246,313.33627 626.731841,321.28699 L540.418351,321.28699 C540.578191,326.375451 541.657099,330.668775 543.655106,334.167092 C545.653114,337.665409 548.290444,340.527625 551.567176,342.753827 C554.843909,344.980028 558.600106,346.609901 562.835882,347.643495 C567.071658,348.677089 571.587087,349.193878 576.382305,349.193878 C585.97274,349.193878 593.844772,348.080793 599.998635,345.854592 C606.152498,343.62839 611.147441,340.925186 614.983616,337.744898 L625.293282,358.019133 Z M573.505188,272.867347 C569.349333,272.867347 565.433297,273.423889 561.756963,274.53699 C558.08063,275.650091 554.763987,277.279964 551.806936,279.426658 C548.849885,281.573353 546.412353,284.236804 544.494265,287.417092 C542.576178,290.59738 541.457311,294.17515 541.13763,298.15051 L600.118514,298.15051 C600.118514,290.358805 597.920739,284.197089 593.525123,279.665179 C589.129507,275.133268 582.456262,272.867347 573.505188,272.867347 Z M752.84544,359.211735 C746.291975,364.141181 738.619742,367.83821 729.828509,370.302934 C721.037276,372.767657 711.84658,374 702.256144,374 C691.866505,374 682.63585,372.489386 674.5639,369.468112 C666.491949,366.446839 659.698826,362.193267 654.184326,356.70727 C648.669825,351.221274 644.474072,344.582522 641.596942,336.790816 C638.719811,328.999111 637.281267,320.412462 637.281267,311.030612 C637.281267,301.012705 638.959568,292.108032 642.316221,284.316327 C645.672873,276.524621 650.34814,269.925622 656.342163,264.519133 C662.336185,259.112643 669.409025,255.018084 677.560896,252.235332 C685.712766,249.45258 694.583786,248.061224 704.174222,248.061224 C713.125295,248.061224 721.5168,249.094803 729.34899,251.16199 C737.181179,253.229177 743.175111,255.216827 747.330967,257.125 L747.330967,299.104592 L720.9574,299.104592 L720.9574,277.160714 C716.002342,276.047613 711.047358,275.491071 706.092299,275.491071 C701.616763,275.491071 697.181253,276.166872 692.785636,277.518495 C688.39002,278.870117 684.473984,281.01678 681.037411,283.958546 C677.600838,286.900312 674.80367,290.597342 672.645822,295.049745 C670.487974,299.502148 669.409066,304.829051 669.409066,311.030612 C669.409066,316.119073 670.288176,320.809928 672.046423,325.103316 C673.804669,329.396705 676.282161,333.133488 679.478973,336.313776 C682.675785,339.494064 686.631781,341.998503 691.347078,343.827168 C696.062376,345.655834 701.297077,346.570153 707.051338,346.570153 C716.162252,346.570153 723.634688,345.298057 729.468869,342.753827 C735.303051,340.209596 739.658642,337.983428 742.535773,336.075255 L752.84544,359.211735 Z M746.611688,203.696429 L795.043146,203.696429 L795.043146,264.757653 L796.002185,264.757653 C799.838359,259.669192 804.953181,255.614386 811.346805,252.593112 C817.740429,249.571839 825.252824,248.061224 833.884216,248.061224 C839.958159,248.061224 845.552496,248.856285 850.667395,250.446429 C855.782294,252.036573 860.177844,254.660271 863.854178,258.317602 C867.530512,261.974933 870.407599,266.944059 872.485527,273.225128 C874.563455,279.506196 875.602403,287.258032 875.602403,296.480867 L875.602403,370.660714 L844.433643,370.660714 L844.433643,302.920918 C844.433643,293.22104 842.355746,286.224511 838.199891,281.931122 C834.044035,277.637734 828.609537,275.491071 821.896232,275.491071 C815.98213,275.491071 810.547631,277.279957 805.592572,280.857781 C800.637514,284.435605 797.121074,289.0072 795.043146,294.572704 L795.043146,370.660714 L763.874386,370.660714 L763.874386,229.933673 L746.611688,229.933673 L746.611688,203.696429 Z" id="tech" opacity="0.6"></path>
                <path d="M70.4893501,252.593112 C79.1207422,252.593112 87.5921667,254.81928 95.9038777,259.271684 C104.215589,263.724087 110.649076,270.044814 115.204533,278.234056 C119.75999,286.423298 122.037684,294.970194 122.037684,303.875 C122.037684,318.027282 117.002781,330.112195 106.932824,340.130102 C96.8628661,350.148009 84.7151631,355.156888 70.4893501,355.156888 C56.2635371,355.156888 44.1158341,350.148009 34.0458766,340.130102 C23.9759191,330.112195 18.9410158,318.027282 18.9410158,303.875 C18.9410158,294.970194 21.2586697,286.423298 25.894047,278.234056 C30.5294242,270.044814 36.9629117,263.724087 45.1947023,259.271684 C53.426493,254.81928 61.8579579,252.593112 70.4893501,252.593112 Z" id="â—"></path>
            </g>
        </g>
    </g>
</svg>